<svg width="30" height="30" viewBox="0 0 30 30" fill="none" xmlns="http://www.w3.org/2000/svg">
<path fill-rule="evenodd" clip-rule="evenodd" d="M17.6878 7.016H16.6686V11.4766C16.6686 11.8746 16.7026 12.1444 16.7591 12.3153C16.8616 12.6008 17.0887 12.7343 17.4177 12.7343C17.7906 12.7343 18.1785 12.5081 18.5855 12.0416V12.6566H19.6075V7.016H18.5855V11.3274C18.3587 11.6475 18.1442 11.8059 17.9398 11.8059C17.8029 11.8059 17.7225 11.7248 17.7001 11.5665C17.6878 11.533 17.6878 11.4087 17.6878 11.169V7.016ZM13.1281 7.52638C12.9108 7.8115 12.8083 8.25221 12.8083 8.85528V10.8305C12.8083 11.4299 12.9108 11.8749 13.1281 12.157C13.4108 12.5418 13.8088 12.7343 14.3183 12.7343C14.8302 12.7343 15.2279 12.5418 15.5106 12.157C15.7248 11.8749 15.8273 11.4302 15.8273 10.8305V8.85528C15.8273 8.25221 15.7248 7.81119 15.5106 7.52638C15.2279 7.1406 14.8302 6.94786 14.3183 6.94786C13.8088 6.94786 13.4108 7.1406 13.1281 7.52638ZM10.8797 8.05978L10.075 5.0874H8.88268C9.00068 5.43427 9.12115 5.78181 9.24165 6.12944L9.24168 6.12951L9.24169 6.12956L9.2417 6.12959L9.24171 6.1296L9.24172 6.12964C9.36503 6.48537 9.48837 6.84119 9.60912 7.19646C9.97281 8.25221 10.1996 9.04802 10.3024 9.59124V12.6569H11.4355V9.59124L12.7991 5.0874H11.6528L10.8797 8.05978ZM21.2663 24.6812C22.1425 24.5833 22.8702 23.9265 23.0752 23.0368C23.3671 21.7696 23.3683 20.3857 23.3683 19.0808V19.0563C23.3683 17.7585 23.3683 16.3843 23.0792 15.1247C22.8739 14.2347 22.1459 13.5782 21.2697 13.4803C19.1944 13.2486 17.0939 13.2474 15.003 13.2486C12.9114 13.2474 10.811 13.2486 8.73567 13.4803C7.85946 13.5779 7.13209 14.2347 6.92738 15.1247C6.63582 16.3923 6.63214 17.7758 6.63214 19.0808C6.63214 20.3857 6.63214 21.7696 6.92401 23.0368C7.12841 23.9268 7.85639 24.5833 8.7326 24.6812C10.8076 24.9129 12.9084 24.9141 14.9993 24.9129C17.0912 24.9141 19.1907 24.9129 21.2663 24.6812ZM19.4036 17.4661C19.6957 17.084 20.0975 16.894 20.6149 16.894C21.1225 16.894 21.5249 17.0843 21.8075 17.4655C22.0196 17.7479 22.1206 18.1843 22.1206 18.7806V19.9367H20.0975V20.9268C20.0975 21.443 20.2675 21.7008 20.6149 21.7008C20.8638 21.7008 21.0093 21.5658 21.067 21.2954C21.0759 21.2404 21.0891 21.0155 21.0891 20.6104H22.1206V20.7574C22.1206 21.0836 22.1086 21.308 22.0991 21.4092C22.0653 21.6333 21.9856 21.8361 21.8628 22.0154C21.5829 22.4208 21.1683 22.6206 20.6401 22.6206C20.111 22.6206 19.708 22.43 19.4161 22.0488C19.2007 21.7692 19.0911 21.3297 19.0911 20.7365V18.7812C19.0911 18.1849 19.189 17.7485 19.4036 17.4661ZM20.0981 19.0952H21.1096V18.5786C21.1096 18.0627 20.9402 17.8043 20.6057 17.8043C20.2678 17.8043 20.0981 18.0624 20.0981 18.5786V19.0952ZM13.4503 21.2278C13.2259 21.5449 13.0138 21.7011 12.8107 21.7011C12.6756 21.7011 12.5986 21.6216 12.574 21.4645C12.5648 21.4319 12.5648 21.3086 12.5648 21.0716V16.9622H11.5533V21.3752C11.5533 21.7695 11.5873 22.0359 11.6426 22.2053C11.7442 22.4883 11.9688 22.6209 12.2942 22.6209C12.6664 22.6209 13.0482 22.3962 13.4503 21.9353V22.5442H14.4624V16.9622H13.4503V21.2278ZM16.3485 17.4994C16.6747 17.0973 17.0218 16.8942 17.3938 16.8942C17.7958 16.8942 18.0671 17.1059 18.2019 17.5246C18.2697 17.7489 18.3044 18.1178 18.3044 18.6463V20.8689C18.3044 21.3854 18.2697 21.7571 18.2019 21.9937C18.0668 22.4093 17.7961 22.621 17.3938 22.621C17.0338 22.621 16.687 22.4209 16.3485 22.0032V22.544H15.3372V15.0527H16.3485V17.4994ZM16.8524 21.7012C17.1446 21.7012 17.2925 21.4526 17.2925 20.9481V18.5659C17.2925 18.0626 17.1443 17.8041 16.8524 17.8041C16.6864 17.8041 16.5173 17.8833 16.3482 18.0506V21.4523C16.5173 21.6217 16.6864 21.7012 16.8524 21.7012ZM7.88019 16.107H9.06945V22.5437H10.1946V16.107H11.4059V15.0527H7.88019V16.107ZM14.806 11.0226C14.806 11.5443 14.6479 11.8055 14.3186 11.8055C13.989 11.8055 13.8306 11.5446 13.8306 11.0226V8.64991C13.8306 8.12818 13.989 7.86792 14.3186 7.86792C14.6479 7.86792 14.806 8.12787 14.806 8.64991V11.0226Z" fill="#222222"/>
</svg>
