<svg width="24" height="24" viewBox="0 0 24 24" fill="none" xmlns="http://www.w3.org/2000/svg">
<path d="M11.9996 8.87579C10.2793 8.87579 8.8754 10.2797 8.8754 12C8.8754 13.7203 10.2793 15.1242 11.9996 15.1242C13.7199 15.1242 15.1238 13.7203 15.1238 12C15.1238 10.2797 13.7199 8.87579 11.9996 8.87579ZM21.3699 12C21.3699 10.7063 21.3817 9.42423 21.309 8.13283C21.2363 6.63283 20.8942 5.30158 19.7973 4.2047C18.6981 3.10548 17.3692 2.76564 15.8692 2.69298C14.5754 2.62033 13.2934 2.63204 12.002 2.63204C10.7082 2.63204 9.42619 2.62033 8.13478 2.69298C6.63478 2.76564 5.30353 3.10783 4.20665 4.2047C3.10744 5.30392 2.76759 6.63283 2.69494 8.13283C2.62228 9.42658 2.634 10.7086 2.634 12C2.634 13.2914 2.62228 14.5758 2.69494 15.8672C2.76759 17.3672 3.10978 18.6985 4.20665 19.7953C5.30587 20.8945 6.63478 21.2344 8.13478 21.307C9.42853 21.3797 10.7106 21.368 12.002 21.368C13.2957 21.368 14.5777 21.3797 15.8692 21.307C17.3692 21.2344 18.7004 20.8922 19.7973 19.7953C20.8965 18.6961 21.2363 17.3672 21.309 15.8672C21.384 14.5758 21.3699 13.2938 21.3699 12ZM11.9996 16.807C9.33947 16.807 7.19259 14.6602 7.19259 12C7.19259 9.33986 9.33947 7.19298 11.9996 7.19298C14.6598 7.19298 16.8067 9.33986 16.8067 12C16.8067 14.6602 14.6598 16.807 11.9996 16.807ZM17.0035 8.11876C16.3824 8.11876 15.8809 7.6172 15.8809 6.99611C15.8809 6.37501 16.3824 5.87345 17.0035 5.87345C17.6246 5.87345 18.1262 6.37501 18.1262 6.99611C18.1264 7.14359 18.0975 7.28966 18.0411 7.42595C17.9848 7.56224 17.9021 7.68607 17.7978 7.79036C17.6935 7.89464 17.5697 7.97733 17.4334 8.03368C17.2971 8.09004 17.151 8.11895 17.0035 8.11876Z" fill="white"/>
</svg>
