<svg width="32" height="32" viewBox="0 0 32 32" fill="none" xmlns="http://www.w3.org/2000/svg">
<path d="M29.4098 9.25995C29.2504 8.66799 28.9384 8.12826 28.5049 7.69479C28.0715 7.26131 27.5317 6.94929 26.9398 6.78995C24.7598 6.19995 15.9998 6.19995 15.9998 6.19995C15.9998 6.19995 7.23978 6.19995 5.05978 6.78995C4.46782 6.94929 3.92809 7.26131 3.49461 7.69479C3.06113 8.12826 2.74911 8.66799 2.58978 9.25995C2.18272 11.4832 1.98519 13.7398 1.99978 16C1.98519 18.2601 2.18272 20.5167 2.58978 22.74C2.74911 23.3319 3.06113 23.8716 3.49461 24.3051C3.92809 24.7386 4.46782 25.0506 5.05978 25.2099C7.23978 25.7999 15.9998 25.7999 15.9998 25.7999C15.9998 25.7999 24.7598 25.7999 26.9398 25.2099C27.5317 25.0506 28.0715 24.7386 28.5049 24.3051C28.9384 23.8716 29.2504 23.3319 29.4098 22.74C29.8168 20.5167 30.0144 18.2601 29.9998 16C30.0144 13.7398 29.8168 11.4832 29.4098 9.25995ZM13.1998 20.2V11.8L20.4698 16L13.1998 20.2Z" fill="white"/>
</svg>
