<svg width="37" height="36" viewBox="0 0 37 36" fill="none" xmlns="http://www.w3.org/2000/svg">
<path d="M32.5 8H4.5C3.96957 8 3.46086 8.21071 3.08579 8.58579C2.71071 8.96086 2.5 9.46957 2.5 10V26C2.5 26.5304 2.71071 27.0391 3.08579 27.4142C3.46086 27.7893 3.96957 28 4.5 28H32.5C33.0304 28 33.5391 27.7893 33.9142 27.4142C34.2893 27.0391 34.5 26.5304 34.5 26V10C34.5 9.46957 34.2893 8.96086 33.9142 8.58579C33.5391 8.21071 33.0304 8 32.5 8ZM32.5 14C31.4764 13.917 30.5174 13.4662 29.8004 12.7308C29.0835 11.9955 28.6571 11.0254 28.6 10H32.5V14ZM32.5 15.62V20.45C31.0601 20.5365 29.7024 21.1501 28.6861 22.1738C27.6698 23.1975 27.066 24.5595 26.99 26H9.99C9.91681 24.561 9.31689 23.1991 8.3045 22.1738C7.29212 21.1485 5.93799 20.5314 4.5 20.44V15.6C5.94809 15.5124 7.31246 14.8918 8.32993 13.8577C9.34741 12.8236 9.94592 11.4493 10.01 10H27.01C27.0736 11.4461 27.6693 12.8177 28.6826 13.8513C29.696 14.8849 31.0555 15.5077 32.5 15.6V15.62ZM8.4 10C8.34295 11.0254 7.91651 11.9955 7.19956 12.7308C6.48261 13.4662 5.52364 13.917 4.5 14V10H8.4ZM4.5 22.06C5.514 22.1413 6.46521 22.5836 7.18085 23.3066C7.89648 24.0295 8.32905 24.9852 8.4 26H4.5V22.06ZM28.6 26C28.6709 24.9852 29.1035 24.0295 29.8192 23.3066C30.5348 22.5836 31.486 22.1413 32.5 22.06V26H28.6Z" fill="#084C61"/>
<path d="M18.5 10.8501C15.03 10.8501 12.2 14.0601 12.2 18.0001C12.2 21.9401 15.03 25.1501 18.5 25.1501C21.97 25.1501 24.8 21.9401 24.8 18.0001C24.8 14.0601 21.97 10.8501 18.5 10.8501ZM18.5 23.5401C15.91 23.5401 13.8 21.0501 13.8 17.9901C13.8 14.9301 15.91 12.4401 18.5 12.4401C21.09 12.4401 23.2 14.9301 23.2 17.9901C23.2 21.0501 21.09 23.5501 18.5 23.5501V23.5401Z" fill="#084C61"/>
</svg>
