<svg width="37" height="36" viewBox="0 0 37 36" fill="none" xmlns="http://www.w3.org/2000/svg">
<path d="M18.5 20.25C17.3875 20.25 16.2999 19.9201 15.3749 19.302C14.4499 18.6839 13.7289 17.8054 13.3032 16.7776C12.8774 15.7498 12.766 14.6188 12.9831 13.5276C13.2001 12.4365 13.7359 11.4342 14.5225 10.6475C15.3092 9.86086 16.3115 9.32513 17.4026 9.10809C18.4938 8.89104 19.6248 9.00244 20.6526 9.42818C21.6804 9.85392 22.5589 10.5749 23.177 11.4999C23.7951 12.4249 24.125 13.5125 24.125 14.625C24.1232 16.1163 23.53 17.546 22.4755 18.6005C21.421 19.655 19.9913 20.2482 18.5 20.25ZM18.5 11.25C17.8325 11.25 17.18 11.4479 16.625 11.8188C16.0699 12.1896 15.6374 12.7167 15.3819 13.3334C15.1265 13.9501 15.0596 14.6287 15.1899 15.2834C15.3201 15.9381 15.6415 16.5395 16.1135 17.0115C16.5855 17.4835 17.1869 17.8049 17.8416 17.9352C18.4963 18.0654 19.1749 17.9985 19.7916 17.7431C20.4083 17.4877 20.9354 17.0551 21.3062 16.5001C21.6771 15.945 21.875 15.2925 21.875 14.625C21.8741 13.7302 21.5182 12.8722 20.8855 12.2395C20.2528 11.6068 19.3948 11.2509 18.5 11.25Z" fill="#084C61"/>
<path d="M18.5 33.75L9.00951 22.5574C8.87764 22.3893 8.74714 22.2202 8.61801 22.05C6.99687 19.9145 6.12108 17.3061 6.12501 14.625C6.12501 11.3429 7.4288 8.19532 9.74957 5.87455C12.0703 3.55379 15.218 2.25 18.5 2.25C21.7821 2.25 24.9297 3.55379 27.2505 5.87455C29.5712 8.19532 30.875 11.3429 30.875 14.625C30.8789 17.3049 30.0036 19.9121 28.3831 22.0466L28.382 22.05C28.382 22.05 28.0445 22.4933 27.9939 22.5529L18.5 33.75ZM10.4135 20.6944C10.4158 20.6944 10.6768 21.0409 10.7364 21.1151L18.5 30.2715L26.2738 21.1027C26.3233 21.0409 26.5865 20.6921 26.5876 20.691C27.9119 18.9463 28.6276 16.8154 28.625 14.625C28.625 11.9397 27.5583 9.36435 25.6595 7.46554C23.7607 5.56674 21.1853 4.5 18.5 4.5C15.8147 4.5 13.2394 5.56674 11.3406 7.46554C9.44175 9.36435 8.37501 11.9397 8.37501 14.625C8.37265 16.8168 9.08914 18.9488 10.4146 20.6944H10.4135Z" fill="#084C61"/>
</svg>
