<svg width="18" height="18" viewBox="0 0 18 18" fill="none" xmlns="http://www.w3.org/2000/svg">
<path d="M12.382 8.76885C12.0214 8.5276 11.5792 8.31978 11.0679 8.15135C10.5629 7.9851 9.99198 7.83135 9.37042 7.69447C8.87917 7.57728 8.52104 7.48697 8.30792 7.42666C8.09948 7.36697 7.89167 7.28447 7.68979 7.17947C7.4951 7.07947 7.34104 6.95916 7.23198 6.82197C7.12885 6.69228 7.07885 6.54197 7.07885 6.36197C7.07885 6.06853 7.23448 5.82072 7.55479 5.60447C7.88698 5.3801 8.33479 5.26666 8.8851 5.26666C9.47792 5.26666 9.90917 5.36916 10.1673 5.57135C10.4329 5.77916 10.6648 6.07385 10.8564 6.44885C11.0214 6.74197 11.1707 6.94572 11.3145 7.07635C11.4692 7.21666 11.692 7.28885 11.9764 7.28885C12.2889 7.28885 12.5545 7.17478 12.7648 6.94978C12.9739 6.72603 13.0798 6.46978 13.0798 6.18728C13.0798 5.89416 12.9989 5.59041 12.8398 5.28572C12.6817 4.98447 12.4307 4.69385 12.0929 4.4226C11.7579 4.15291 11.331 3.93385 10.8248 3.77166C10.3217 3.61072 9.71823 3.52916 9.03292 3.52916C8.1751 3.52916 7.41698 3.65228 6.77948 3.89447C6.13385 4.1401 5.6326 4.49853 5.28917 4.95916C4.94292 5.42322 4.7676 5.96135 4.7676 6.55822C4.7676 7.18416 4.93479 7.71728 5.26448 8.14103C5.58948 8.55947 6.03323 8.89385 6.58385 9.13478C7.12229 9.3701 7.79917 9.57885 8.59635 9.75447C9.18229 9.88041 9.65635 10.001 10.0054 10.1132C10.3395 10.2207 10.6157 10.377 10.8248 10.5779C11.0242 10.7704 11.1214 11.0151 11.1214 11.3273C11.1214 11.722 10.9351 12.0442 10.5529 12.3129C10.1614 12.5879 9.64104 12.7276 9.00635 12.7276C8.54448 12.7276 8.16948 12.6585 7.89104 12.5232C7.61448 12.3882 7.3976 12.2163 7.24698 12.011C7.09042 11.7973 6.94167 11.527 6.80573 11.206C6.68385 10.912 6.5326 10.6835 6.35573 10.5295C6.17073 10.3685 5.94292 10.2873 5.67948 10.2873C5.35792 10.2873 5.08823 10.3904 4.87791 10.5938C4.66541 10.7995 4.5576 11.0504 4.5576 11.3398C4.5576 11.8029 4.72291 12.2835 5.04916 12.7673C5.37229 13.2467 5.7976 13.6351 6.31354 13.9217C7.03542 14.3157 7.9601 14.5151 9.06292 14.5151C9.98135 14.5151 10.7889 14.3688 11.4626 14.081C12.1426 13.7901 12.6673 13.3804 13.0226 12.8635C13.3792 12.3438 13.5601 11.7507 13.5601 11.1001C13.5601 10.5557 13.4551 10.0876 13.2476 9.70854C13.041 9.33166 12.7498 9.0151 12.382 8.76885ZM12.5954 17.4001C11.8335 17.4001 11.117 17.2026 10.4904 16.8563C10.0348 16.9432 9.56479 16.9892 9.08417 16.9892C4.84354 16.9892 1.40542 13.4517 1.40542 9.08822C1.40542 8.54385 1.45916 8.0126 1.56104 7.49947C1.1726 6.81916 0.948853 6.0276 0.948853 5.18197C0.948853 2.65166 2.9426 0.600098 5.40198 0.600098C6.27323 0.600098 7.08479 0.858223 7.77135 1.30322C8.19823 1.2276 8.63698 1.1876 9.08417 1.1876C13.3254 1.1876 16.7632 4.7251 16.7632 9.08822C16.7632 9.6701 16.7014 10.2373 16.5857 10.7835C16.8817 11.3967 17.0485 12.0876 17.0485 12.8188C17.0482 15.3482 15.0548 17.4001 12.5954 17.4001Z" fill="#222222"/>
</svg>
