<svg width="31" height="28" viewBox="0 0 31 28" fill="none" xmlns="http://www.w3.org/2000/svg">
<path d="M19.625 18.5C21.074 18.5 22.25 19.676 22.25 21.125L22.2485 22.568C22.424 25.853 19.982 27.5135 15.6005 27.5135C11.2355 27.5135 8.75 25.8785 8.75 22.625V21.125C8.75 19.676 9.926 18.5 11.375 18.5H19.625ZM19.625 20.75H11.375C11.2755 20.75 11.1802 20.7895 11.1098 20.8598C11.0395 20.9302 11 21.0255 11 21.125V22.625C11 24.389 12.3305 25.2635 15.6005 25.2635C18.8525 25.2635 20.093 24.4175 20 22.628V21.125C20 21.0255 19.9605 20.9302 19.8902 20.8598C19.8198 20.7895 19.7245 20.75 19.625 20.75ZM3.125 11H9.689C9.50001 11.7343 9.45165 12.4977 9.5465 13.25H3.125C3.02554 13.25 2.93016 13.2895 2.85983 13.3598C2.78951 13.4302 2.75 13.5255 2.75 13.625V15.125C2.75 16.889 4.0805 17.7635 7.3505 17.7635C8.0435 17.7635 8.645 17.7245 9.161 17.648C8.30274 18.1917 7.67601 19.0338 7.4015 20.012L7.3505 20.0135C2.9855 20.0135 0.5 18.3785 0.5 15.125V13.625C0.5 12.176 1.676 11 3.125 11ZM27.875 11C29.324 11 30.5 12.176 30.5 13.625L30.4985 15.068C30.674 18.353 28.232 20.0135 23.8505 20.0135L23.597 20.0105C23.3142 19.0056 22.6614 18.1449 21.77 17.6015C22.3505 17.7095 23.0405 17.7635 23.8505 17.7635C27.1025 17.7635 28.343 16.9175 28.25 15.128V13.625C28.25 13.5255 28.2105 13.4302 28.1402 13.3598C28.0698 13.2895 27.9745 13.25 27.875 13.25H21.455C21.5478 12.4976 21.499 11.7344 21.311 11H27.875ZM15.5 8C16.0909 8 16.6761 8.1164 17.2221 8.34254C17.768 8.56869 18.2641 8.90016 18.682 9.31802C19.0998 9.73588 19.4313 10.232 19.6575 10.7779C19.8836 11.3239 20 11.9091 20 12.5C20 13.0909 19.8836 13.6761 19.6575 14.2221C19.4313 14.768 19.0998 15.2641 18.682 15.682C18.2641 16.0998 17.768 16.4313 17.2221 16.6575C16.6761 16.8836 16.0909 17 15.5 17C14.3065 17 13.1619 16.5259 12.318 15.682C11.4741 14.8381 11 13.6935 11 12.5C11 11.3065 11.4741 10.1619 12.318 9.31802C13.1619 8.47411 14.3065 8 15.5 8ZM15.5 10.25C15.2045 10.25 14.9119 10.3082 14.639 10.4213C14.366 10.5343 14.1179 10.7001 13.909 10.909C13.7001 11.1179 13.5343 11.366 13.4213 11.639C13.3082 11.9119 13.25 12.2045 13.25 12.5C13.25 12.7955 13.3082 13.0881 13.4213 13.361C13.5343 13.634 13.7001 13.8821 13.909 14.091C14.1179 14.2999 14.366 14.4657 14.639 14.5787C14.9119 14.6918 15.2045 14.75 15.5 14.75C16.0967 14.75 16.669 14.5129 17.091 14.091C17.5129 13.669 17.75 13.0967 17.75 12.5C17.75 11.9033 17.5129 11.331 17.091 10.909C16.669 10.4871 16.0967 10.25 15.5 10.25ZM7.25 0.5C8.44347 0.5 9.58807 0.974106 10.432 1.81802C11.2759 2.66193 11.75 3.80653 11.75 5C11.75 6.19347 11.2759 7.33807 10.432 8.18198C9.58807 9.0259 8.44347 9.5 7.25 9.5C6.05653 9.5 4.91193 9.0259 4.06802 8.18198C3.22411 7.33807 2.75 6.19347 2.75 5C2.75 3.80653 3.22411 2.66193 4.06802 1.81802C4.91193 0.974106 6.05653 0.5 7.25 0.5ZM23.75 0.5C24.9435 0.5 26.0881 0.974106 26.932 1.81802C27.7759 2.66193 28.25 3.80653 28.25 5C28.25 6.19347 27.7759 7.33807 26.932 8.18198C26.0881 9.0259 24.9435 9.5 23.75 9.5C22.5565 9.5 21.4119 9.0259 20.568 8.18198C19.7241 7.33807 19.25 6.19347 19.25 5C19.25 3.80653 19.7241 2.66193 20.568 1.81802C21.4119 0.974106 22.5565 0.5 23.75 0.5ZM7.25 2.75C6.65326 2.75 6.08097 2.98705 5.65901 3.40901C5.23705 3.83097 5 4.40326 5 5C5 5.59674 5.23705 6.16903 5.65901 6.59099C6.08097 7.01295 6.65326 7.25 7.25 7.25C7.84674 7.25 8.41903 7.01295 8.84099 6.59099C9.26295 6.16903 9.5 5.59674 9.5 5C9.5 4.40326 9.26295 3.83097 8.84099 3.40901C8.41903 2.98705 7.84674 2.75 7.25 2.75ZM23.75 2.75C23.1533 2.75 22.581 2.98705 22.159 3.40901C21.7371 3.83097 21.5 4.40326 21.5 5C21.5 5.59674 21.7371 6.16903 22.159 6.59099C22.581 7.01295 23.1533 7.25 23.75 7.25C24.3467 7.25 24.919 7.01295 25.341 6.59099C25.7629 6.16903 26 5.59674 26 5C26 4.40326 25.7629 3.83097 25.341 3.40901C24.919 2.98705 24.3467 2.75 23.75 2.75Z" fill="#084C61"/>
</svg>
