<svg width="33" height="25" viewBox="0 0 33 25" fill="none" xmlns="http://www.w3.org/2000/svg">
<path d="M20.2271 0.839874C19.6027 0.844374 18.9829 0.87475 18.3281 1.05025C17.6149 1.24387 16.9381 1.55282 16.3245 1.96487C15.4627 1.45862 14.628 1.04237 13.8281 0.944499C12.8348 0.821874 11.9122 0.88825 10.8401 0.91075C9.56888 0.936625 8.73975 1.58575 7.39425 2.1055C6.04988 2.623 4.3185 3.12475 1.875 3.12475H0.75V13.9529L1.38337 14.269L3.45675 15.2894L10.8401 23.5154L10.875 23.5503C11.7188 24.385 12.8573 24.592 13.863 24.5346C14.8699 24.4784 15.8149 24.1836 16.5697 23.7269C18.2314 22.7245 22.7572 19.5779 22.7572 19.5779L22.863 19.507L22.9339 19.4373C23.4694 18.9051 23.7383 18.256 23.9182 17.5743L28.2416 15.394L31.476 14.305L32.25 14.0575V3.12475H31.125C29.2339 3.13768 27.3587 2.77915 25.6057 2.0695C24.2603 1.54412 23.4435 0.90175 22.1588 0.87475C21.4725 0.86125 20.8493 0.835374 20.226 0.839874H20.2271ZM20.2609 3.08987C20.7671 3.08537 21.3521 3.11237 22.0901 3.12475C22.2083 3.12925 23.2894 3.5905 24.7969 4.18C26.0715 4.68062 27.8423 5.125 30 5.269V12.4409L27.3979 13.3206H27.3281L27.2572 13.3544L23.8485 15.0779C23.6676 14.5558 23.3802 14.077 23.0047 13.6716L22.9339 13.5659L18.1526 7.69562L17.4495 6.81588L16.5697 7.519L13.5469 9.9805C12.5321 10.6836 11.7098 10.4811 10.875 10.0863C10.6331 9.9715 10.6466 9.93663 10.4531 9.805L15.5865 5.55025L15.6562 5.4805C17.1806 3.9685 18.1178 3.44537 18.9255 3.2305C19.3305 3.12025 19.7569 3.09437 20.262 3.08987H20.2609ZM12.423 3.12475C12.7984 3.1106 13.1742 3.12225 13.548 3.15963C13.8428 3.1945 14.1769 3.44537 14.4626 3.54662C14.3479 3.65237 14.2646 3.71312 14.1454 3.82787L14.0756 3.89875L7.923 8.995L6.9735 9.769L7.81725 10.6476C7.81725 10.6476 8.63063 11.5274 9.89175 12.1248C11.1529 12.7221 13.1002 13.0608 14.8485 11.8435L14.9194 11.7726L17.0985 9.9805L21.2475 15.0779L21.2824 15.1488L21.3172 15.1825C22.0597 15.9171 22.0429 17.0725 21.3172 17.8206C21.3083 17.8285 21.3263 17.8465 21.3172 17.8544C21.3083 17.86 21.1597 17.9478 21.1418 17.9613L19.6646 15.9565L17.8365 17.293L19.2787 19.2258C18.6937 19.6218 18.4305 19.8288 17.8016 20.2461L16.2908 18.2065L14.4615 19.543L15.9038 21.4758C15.7755 21.5545 15.5122 21.7311 15.411 21.793C15.0555 22.0079 14.3692 22.2498 13.7584 22.2846C13.1835 22.3161 12.7436 22.1834 12.5288 22.0034L12.4939 21.9685L4.96987 13.6368L4.82925 13.4601L3 12.5466V5.269C5.14875 5.12838 6.933 4.702 8.20312 4.21487C9.70613 3.63887 10.7794 3.16412 10.9099 3.15963L12.4219 3.12475H12.423Z" fill="#084C61"/>
</svg>
